<svg width="43" height="16" viewBox="0 0 43 16" fill="none" xmlns="http://www.w3.org/2000/svg">
<path d="M1 7C0.447715 7 4.82823e-08 7.44772 0 8C-4.82823e-08 8.55228 0.447715 9 1 9L1 8L1 7ZM42.7071 8.70711C43.0976 8.31659 43.0976 7.68342 42.7071 7.2929L36.3431 0.928935C35.9526 0.538411 35.3195 0.538411 34.9289 0.928935C34.5384 1.31946 34.5384 1.95262 34.9289 2.34315L40.5858 8L34.9289 13.6569C34.5384 14.0474 34.5384 14.6805 34.9289 15.0711C35.3195 15.4616 35.9526 15.4616 36.3431 15.0711L42.7071 8.70711ZM1 8L1 9L42 9L42 8L42 7L1 7L1 8Z" fill="white"/>
</svg>
