<svg width="378" height="78" viewBox="0 0 378 78" fill="none" xmlns="http://www.w3.org/2000/svg">
<path d="M51.896 76.248L32.6 77.112L32.792 67.608C13.112 65.304 0.92 55.128 0.92 41.304C0.92 27 11.576 15.48 33.848 12.888L34.136 2.232L53.624 1.848L53.336 12.984C75.608 15.768 85.688 27.384 85.688 40.824C85.688 55.896 72.344 65.208 52.088 67.512L51.896 76.248ZM22.328 42.552C22.328 47.16 25.016 51.672 33.08 53.688L33.56 30.456C25.496 32.376 22.328 36.792 22.328 42.552ZM63.416 41.496C63.416 37.176 60.632 32.472 52.952 30.456L52.376 53.88C60.344 52.056 63.416 47.64 63.416 41.496ZM107.85 77.016L95.0818 75.768L90.5698 3.96L114.666 2.424L112.266 41.88L132.234 3.768L154.602 4.152L151.914 75.864L132.33 75.096L133.098 38.232L107.85 77.016ZM215.207 75.48L194.279 75L193.991 49.752L182.087 50.904L181.415 77.112L162.023 75.576L160.871 6.55199L182.567 5.4L181.895 35.064L193.895 34.776L193.607 6.07199L212.615 4.44L215.207 75.48ZM287.917 75L265.549 75.96L261.037 58.392L242.509 59.064L239.629 74.328L217.645 75.48L237.325 2.99999L262.093 0.983997L287.917 75ZM257.677 45.72L250.573 23.064L245.101 45.72H257.677ZM295.735 48.408L295.159 6.55199L346.903 4.44L348.535 75.096L327.607 75.576L328.567 20.856L315.991 22.008L315.895 52.92C315.895 67.128 310.231 77.592 289.687 77.592L288.343 61.848C294.103 61.56 296.023 57.336 295.735 48.408ZM366.734 77.4C361.358 77.4 356.27 72.984 356.27 66.84C356.27 61.08 360.878 56.088 366.638 56.088C372.014 56.088 377.102 60.6 377.102 66.744C377.102 72.12 372.878 77.4 366.734 77.4ZM366.734 42.84C361.358 42.84 356.27 38.424 356.27 32.28C356.27 26.52 360.878 21.528 366.638 21.528C372.014 21.528 377.102 26.04 377.102 32.184C377.102 37.56 372.878 42.84 366.734 42.84Z" fill="#004A94"/>
</svg>
