<svg width="702" height="30" viewBox="0 0 702 30" fill="none" xmlns="http://www.w3.org/2000/svg">
<path d="M19.5989 26.256L12.3669 25.936L12.8469 16.528L8.04689 17.584L8.27089 26.416L2.22289 26.16L0.494889 3.216L7.66289 2.32L7.88689 11.408L13.1029 11.248L13.5829 1.84L20.2709 2.256L19.5989 26.256ZM33.4174 26.928C26.8574 26.928 21.8654 21.136 21.8654 14.32C21.8654 7.408 26.8894 1.424 33.5134 1.424C40.2654 1.424 45.2254 7.152 45.2254 14.224C45.2254 20.976 40.0734 26.928 33.4174 26.928ZM33.5774 20.24C36.4574 20.24 38.0894 17.648 38.0894 14.704C38.0894 11.76 36.3294 9.2 33.6734 9.2C30.7614 9.2 28.7774 11.856 28.7774 14.8C28.7774 17.872 30.2814 20.24 33.5774 20.24ZM60.1906 25.712L59.5186 2.704C61.4066 2.192 64.9906 1.808 67.7426 1.808C72.7666 1.808 77.8226 3.12 77.8226 7.216C77.8226 9.392 75.7426 11.184 72.9266 12.72C76.7346 13.296 80.1586 15.216 80.1586 18.192C80.1586 24.08 72.9586 26.352 66.6546 26.352C64.6386 26.352 61.7266 26.128 60.1906 25.712ZM65.8226 6.64L65.9506 10.832C66.1746 10.864 66.3666 10.896 66.6226 10.896C67.9026 10.896 70.3346 9.84 70.3346 8.176C70.3346 6.8 69.0546 6.288 67.7426 6.288C67.0386 6.288 66.3986 6.416 65.8226 6.64ZM66.1106 16.56L66.2066 20.88C66.7186 20.976 67.3906 21.072 68.1586 21.072C70.1746 21.072 72.5426 20.528 72.5426 18.448C72.5426 16.624 70.8786 16.048 69.0866 16.048C67.9666 16.048 66.8786 16.272 66.1106 16.56ZM95.9721 17.68L95.9402 26.8C95.0121 26.928 94.1482 26.96 93.2842 26.96C84.8361 26.96 81.0601 21.328 81.0601 15.408C81.0601 8.88 85.6361 2 93.5722 2C94.1482 2 94.7241 2.032 95.3001 2.096L95.9402 10.256C95.5562 10.224 95.1721 10.192 94.8202 10.192C90.5641 10.192 88.7401 12.72 88.7401 15.152C88.7401 17.328 91.0442 18.192 93.2201 18.192C94.2761 18.192 95.1721 18.032 95.9721 17.68ZM113.207 24.912L98.3914 27.248L97.1434 2.992L112.599 1.488L112.727 9.232L103.063 9.968L103.191 12.816L111.095 12.112L111.383 16.592L103.511 17.424L103.639 20.624L112.759 19.504L113.207 24.912ZM154.215 25.84L146.343 26.192L145.223 13.168L141.127 23.632L138.311 24.112L135.015 13.84L132.583 26.64L125.959 25.072L131.047 1.712L136.071 1.552L140.135 13.392L144.999 1.616L150.311 2.16L154.215 25.84ZM166.61 26.928C160.05 26.928 155.058 21.136 155.058 14.32C155.058 7.408 160.082 1.424 166.706 1.424C173.458 1.424 178.418 7.152 178.418 14.224C178.418 20.976 173.266 26.928 166.61 26.928ZM166.77 20.24C169.65 20.24 171.282 17.648 171.282 14.704C171.282 11.76 169.522 9.2 166.866 9.2C163.954 9.2 161.97 11.856 161.97 14.8C161.97 17.872 163.474 20.24 166.77 20.24ZM187.098 7.92L186.33 26.672L179.898 27.152L180.538 1.968L195.354 2.416L195.546 8.208L187.098 7.92ZM198.186 17.136L197.674 2.864L217.226 2.256L216.65 26.384L209.322 26.192L210.25 7.472L204.618 8.016L204.906 18.64C204.906 23.376 203.018 26.864 196.17 26.864L195.722 21.616C197.642 21.52 198.282 20.112 198.186 17.136ZM230.366 26.928C223.806 26.928 218.814 21.136 218.814 14.32C218.814 7.408 223.838 1.424 230.462 1.424C237.214 1.424 242.174 7.152 242.174 14.224C242.174 20.976 237.022 26.928 230.366 26.928ZM230.526 20.24C233.406 20.24 235.038 17.648 235.038 14.704C235.038 11.76 233.278 9.2 230.622 9.2C227.71 9.2 225.726 11.856 225.726 14.8C225.726 17.872 227.23 20.24 230.526 20.24ZM270.835 17.68L270.803 26.8C269.875 26.928 269.011 26.96 268.147 26.96C259.699 26.96 255.923 21.328 255.923 15.408C255.923 8.88 260.499 2 268.435 2C269.011 2 269.587 2.032 270.163 2.096L270.803 10.256C270.419 10.224 270.035 10.192 269.683 10.192C265.427 10.192 263.603 12.72 263.603 15.152C263.603 17.328 265.907 18.192 268.083 18.192C269.139 18.192 270.035 18.032 270.835 17.68ZM274.247 17.136L273.735 2.864L293.287 2.256L292.711 26.384L285.383 26.192L286.311 7.472L280.679 8.016L280.967 18.64C280.967 23.376 279.079 26.864 272.231 26.864L271.783 21.616C273.703 21.52 274.343 20.112 274.247 17.136ZM306.427 26.928C299.867 26.928 294.875 21.136 294.875 14.32C294.875 7.408 299.899 1.424 306.523 1.424C313.275 1.424 318.235 7.152 318.235 14.224C318.235 20.976 313.083 26.928 306.427 26.928ZM306.587 20.24C309.467 20.24 311.099 17.648 311.099 14.704C311.099 11.76 309.339 9.2 306.683 9.2C303.771 9.2 301.787 11.856 301.787 14.8C301.787 17.872 303.291 20.24 306.587 20.24ZM353.412 22.192L347.716 26.448L339.78 18.256L339.876 26.608L331.972 26.416L332.868 16.912L326.34 26L319.012 25.616L327.524 14.64L319.236 6.448L324.932 2.192L333.316 10.672L333.572 1.584L339.62 1.904L339.716 11.792L346.308 2.64L353.636 3.024L345.124 14L353.412 22.192ZM359.415 26.48L354.807 26.416L355.223 1.52L362.455 1.904L361.655 11.728L368.343 1.52L374.071 1.968L374.039 26.256L365.943 26.544L366.711 13.744L359.415 26.48ZM387.811 27.088L381.091 26.416L381.251 8.88L376.035 9.008L375.395 3.088L393.923 1.936L393.955 8.336L388.867 8.56L387.811 27.088ZM401.482 16.624L401.354 20.4C402.058 20.592 402.826 20.688 403.626 20.688C405.674 20.688 407.562 19.856 407.562 17.808C407.562 16.528 406.09 16.08 404.522 16.08C403.402 16.08 402.25 16.272 401.482 16.624ZM394.506 2.32H401.93L401.642 10.896C403.402 10.512 404.938 10.352 406.314 10.352C413.546 10.352 415.338 13.712 415.338 16.752C415.338 22.384 410.218 26.576 400.714 26.576C398.922 26.576 397.162 26.352 395.466 25.936L394.506 2.32ZM431.184 17.68L431.152 26.8C430.224 26.928 429.36 26.96 428.496 26.96C420.048 26.96 416.272 21.328 416.272 15.408C416.272 8.88 420.848 2 428.784 2C429.36 2 429.936 2.032 430.512 2.096L431.152 10.256C430.768 10.224 430.384 10.192 430.032 10.192C425.776 10.192 423.952 12.72 423.952 15.152C423.952 17.328 426.256 18.192 428.432 18.192C429.488 18.192 430.384 18.032 431.184 17.68ZM438.147 26.32L431.267 24.944L436.963 15.728C434.147 13.808 432.515 11.6 432.515 8.912C432.515 3.792 438.051 1.872 444.131 1.872C446.467 1.872 448.899 2.128 451.107 2.64L450.499 25.648L443.587 26.512L444.259 19.312C443.491 19.056 442.499 18.672 441.635 18.192L438.147 26.32ZM444.963 13.712L445.667 7.888C444.739 7.6 443.363 7.28 442.115 7.28C440.483 7.28 439.107 7.856 439.107 9.68C439.107 11.696 441.731 13.2 444.963 13.712ZM483.878 26.256L476.646 25.936L477.574 7.472L472.134 8.048L472.55 26.416L466.502 26.16L464.774 2.736L484.55 2.256L483.878 26.256ZM497.696 26.928C491.136 26.928 486.144 21.136 486.144 14.32C486.144 7.408 491.168 1.424 497.792 1.424C504.544 1.424 509.504 7.152 509.504 14.224C509.504 20.976 504.352 26.928 497.696 26.928ZM497.856 20.24C500.736 20.24 502.368 17.648 502.368 14.704C502.368 11.76 500.608 9.2 497.952 9.2C495.04 9.2 493.056 11.856 493.056 14.8C493.056 17.872 494.56 20.24 497.856 20.24ZM521.769 18.128L511.305 18.64L510.857 13.552L521.257 12.08L521.769 18.128ZM550.163 29.904L543.507 29.648L543.667 26.032L530.195 25.616L530.291 29.84H523.539L523.187 20.4H526.419L533.331 1.712L540.147 1.808L546.579 20.368L550.355 20.336L550.163 29.904ZM536.787 8.464L533.267 20.4L539.987 20.368L536.787 8.464ZM558.442 26.8L551.946 26.768L551.338 3.28C553.674 2.352 556.298 2.032 559.082 2.032C565.386 2.032 570.058 4.624 570.058 9.584C570.058 15.312 566.026 19.312 558.218 19.664L558.442 26.8ZM557.898 8.656L558.058 14.384C558.346 14.416 558.634 14.416 558.89 14.416C562.378 14.416 564.362 12.528 564.362 10.832C564.362 9.456 563.114 8.272 560.394 8.272C559.53 8.272 558.634 8.4 557.898 8.656ZM595.516 4.784L577.468 27.472L571.772 23.376L579.164 15.472L569.756 5.584L576.156 0.911999L583.164 10.544L589.692 1.296L595.516 4.784ZM602.84 7.92L602.072 26.672L595.64 27.152L596.28 1.968L611.096 2.416L611.288 8.208L602.84 7.92ZM623.303 26.928C616.743 26.928 611.751 21.136 611.751 14.32C611.751 7.408 616.775 1.424 623.399 1.424C630.151 1.424 635.111 7.152 635.111 14.224C635.111 20.976 629.959 26.928 623.303 26.928ZM623.463 20.24C626.343 20.24 627.975 17.648 627.975 14.704C627.975 11.76 626.215 9.2 623.559 9.2C620.647 9.2 618.663 11.856 618.663 14.8C618.663 17.872 620.167 20.24 623.463 20.24ZM664.08 25.84L656.208 26.192L655.088 13.168L650.992 23.632L648.176 24.112L644.88 13.84L642.448 26.64L635.824 25.072L640.912 1.712L645.936 1.552L650 13.392L654.864 1.616L660.176 2.16L664.08 25.84ZM690.202 4.784L672.154 27.472L666.458 23.376L673.85 15.472L664.442 5.584L670.842 0.911999L677.85 10.544L684.378 1.296L690.202 4.784ZM697.813 18.256L691.893 17.072L692.821 1.52L701.525 2.864L697.813 18.256ZM693.973 26.544C692.181 26.544 690.485 25.072 690.485 23.024C690.485 21.104 692.021 19.44 693.941 19.44C695.733 19.44 697.429 20.944 697.429 22.992C697.429 24.784 696.021 26.544 693.973 26.544Z" fill="#004A94"/>
</svg>
